<svg xmlns="http://www.w3.org/2000/svg" width="500" height="500" viewBox="0 0 500 500" version="1.1"><path d="M 199.500 24.683 C 197.850 24.928, 193.800 25.804, 190.500 26.628 C 187.200 27.452, 182.164 29.660, 179.309 31.534 C 174.917 34.418, 173.541 36.137, 170.359 42.721 C 166.598 50.500, 166.598 50.500, 165.748 97.500 C 165.281 123.350, 165.152 150.674, 165.462 158.220 C 165.954 170.184, 166.400 172.912, 168.951 179.535 C 170.559 183.713, 173.336 189.464, 175.121 192.315 C 177.048 195.393, 204.860 224.121, 243.553 263 C 304.775 324.516, 308.884 328.865, 311.120 334.500 C 313.500 340.500, 313.500 340.500, 313.787 394 C 314.040 441.205, 313.885 447.997, 312.465 451.722 C 311.580 454.043, 309.491 457.092, 307.822 458.496 C 304.788 461.049, 304.788 461.049, 249.974 460.775 C 195.160 460.500, 195.160 460.500, 192.634 458.126 C 190.107 455.752, 190.107 455.752, 189.804 391.626 C 189.523 332.432, 189.363 327.231, 187.717 324 C 186.736 322.075, 185.254 319.600, 184.424 318.500 C 182.948 316.544, 181.444 316.489, 115.868 316 C 48.821 315.500, 48.821 315.500, 46.911 313.139 C 45.080 310.877, 45 308.404, 45 254.044 C 45 201.263, 45.122 197.203, 46.750 195.776 C 47.713 194.932, 49.884 193.541, 51.574 192.686 C 53.899 191.510, 58.570 191.067, 70.722 190.872 C 86.795 190.613, 86.795 190.613, 90.411 193.788 C 92.400 195.534, 95.436 197.691, 97.157 198.581 C 99.009 199.539, 102.709 200.200, 106.215 200.200 C 110.988 200.200, 113.038 199.645, 116.743 197.350 C 119.689 195.525, 122.182 192.914, 123.672 190.093 C 125.286 187.036, 126 184.013, 126 180.228 C 126 176.264, 125.299 173.483, 123.439 170.065 C 122.030 167.476, 119.488 164.538, 117.790 163.535 C 115.995 162.475, 111.942 161.519, 108.102 161.252 C 102.046 160.830, 100.963 161.077, 95 164.246 C 88.500 167.700, 88.500 167.700, 70.500 168.294 C 57.427 168.726, 50.710 169.399, 45.960 170.752 C 42.363 171.777, 37.330 174.053, 34.776 175.810 C 32.222 177.567, 29.166 180.363, 27.983 182.023 C 26.801 183.684, 24.859 187.620, 23.667 190.771 C 21.530 196.420, 21.501 197.316, 21.591 255 C 21.682 313.500, 21.682 313.500, 24.224 319 C 25.693 322.179, 29.031 326.679, 32.133 329.663 C 36.410 333.778, 38.893 335.251, 44.355 336.913 C 50.928 338.914, 53.466 339.004, 105.855 339.100 C 135.910 339.155, 161.625 339.513, 163 339.896 C 165.500 340.593, 165.500 340.593, 165.500 398.546 C 165.500 456.500, 165.500 456.500, 168.300 462.500 C 169.839 465.800, 173.213 470.653, 175.796 473.284 C 179.633 477.193, 181.866 478.496, 187.996 480.402 C 194.943 482.562, 197.727 482.774, 225.500 483.264 C 242 483.555, 267.650 483.468, 282.500 483.071 C 305.241 482.463, 310.210 482.060, 314 480.517 C 316.475 479.509, 320.354 477.198, 322.621 475.381 C 324.887 473.564, 328.196 469.811, 329.975 467.040 C 332.497 463.108, 333.517 459.969, 334.615 452.751 C 335.663 445.863, 336.033 431.879, 336.065 398 C 336.098 362.609, 335.767 349.945, 334.575 341 C 333.360 331.872, 332.331 328.056, 329.588 322.500 C 327.393 318.053, 322.735 311.670, 316.819 305 C 311.697 299.225, 285.454 272.462, 258.503 245.527 C 231.551 218.592, 206.199 192.942, 202.164 188.527 C 198.129 184.112, 193.768 178.700, 192.474 176.500 C 190.122 172.500, 190.122 172.500, 189.811 113.137 C 189.500 53.773, 189.500 53.773, 193.417 50.387 C 197.333 47, 197.333 47, 251.944 47 C 300.399 47, 306.813 47.180, 308.841 48.601 C 310.098 49.481, 311.660 51.394, 312.313 52.851 C 313.172 54.767, 313.638 73.356, 314 120.045 C 314.451 178.317, 314.664 184.840, 316.182 187.157 C 317.152 188.637, 319.216 189.993, 321.057 190.361 C 322.813 190.713, 351.981 191.010, 385.875 191.022 C 444.289 191.043, 447.718 191.143, 451.691 192.947 C 455.184 194.532, 456.101 195.570, 457.191 199.175 C 458.197 202.498, 458.500 215.436, 458.500 255 C 458.500 303.148, 458.382 306.674, 456.681 309.181 C 455.680 310.655, 453.655 312.679, 452.181 313.679 C 449.878 315.240, 446.857 315.545, 430.782 315.842 C 412.064 316.186, 412.064 316.186, 407.782 312.691 C 405.427 310.768, 401.648 308.700, 399.385 308.095 C 397.122 307.491, 393.747 307.276, 391.885 307.619 C 390.023 307.962, 386.553 309.352, 384.172 310.709 C 381.648 312.148, 378.627 315.095, 376.922 317.783 C 374.588 321.465, 374 323.519, 374 328 C 374 332.493, 374.587 334.534, 376.952 338.263 C 379.004 341.499, 381.432 343.692, 384.919 345.459 C 388.579 347.313, 391.503 348, 395.744 348 C 399.485 348, 402.436 347.411, 404.027 346.347 C 405.387 345.437, 407.766 343.525, 409.312 342.097 C 412.108 339.515, 412.244 339.497, 432.856 338.989 C 453.587 338.478, 453.587 338.478, 460.241 335.202 C 464.417 333.146, 468.441 330.172, 471.048 327.213 C 473.332 324.621, 475.943 321.150, 476.850 319.500 C 478.344 316.784, 478.468 310.594, 478.162 254 C 477.824 191.500, 477.824 191.500, 475.180 186.616 C 473.726 183.930, 470.134 179.776, 467.199 177.384 C 464.201 174.942, 459.591 172.352, 456.681 171.475 C 453.831 170.617, 447 169.499, 441.500 168.991 C 436 168.483, 410.743 168.052, 385.372 168.034 C 344.029 168.003, 339.105 167.831, 337.896 166.374 C 336.818 165.076, 336.412 153.741, 335.880 110.124 C 335.468 76.309, 334.793 53.628, 334.107 50.587 C 333.498 47.885, 331.592 43.480, 329.871 40.798 C 328.150 38.116, 324.800 34.331, 322.426 32.386 C 320.053 30.442, 315.274 27.902, 311.806 26.744 C 305.755 24.722, 303.420 24.629, 254 24.436 C 225.675 24.326, 201.150 24.437, 199.500 24.683" stroke="none" fill="#0e9ac4" fill-rule="evenodd"/></svg>